<svg version="1.1" id="Layer_1" xmlns="http://www.w3.org/2000/svg" xmlns:xlink="http://www.w3.org/1999/xlink" x="0px" y="0px"
	 width="100%" viewBox="250 55 210 475" enable-background="new 250 55 210 475" xml:space="preserve">
<path fill="#000000" opacity="1.000000" stroke="none" 
	d="
M392.600586,260.560486 
	C400.367645,295.359680 401.609619,329.505554 389.051880,363.223328 
	C385.831879,371.869141 385.579041,381.583313 387.875061,389.855408 
	C393.453644,409.953918 389.815216,429.118134 385.577820,448.515045 
	C384.228333,454.692383 383.211151,460.980621 381.331146,466.995972 
	C376.983490,480.906708 379.158997,493.574432 387.469604,505.372620 
	C388.327942,506.591187 389.095703,507.903839 389.699280,509.264343 
	C390.545197,511.171112 390.762604,513.315735 389.537567,515.029175 
	C385.956787,520.037354 380.216919,518.382996 375.347534,519.111023 
	C371.818695,519.638672 369.572876,516.895264 369.060577,513.821472 
	C367.152466,502.373535 362.291962,491.511200 365.482483,479.138458 
	C368.801147,466.269043 366.566772,452.903137 364.010529,440.022522 
	C361.861816,429.195740 362.150574,418.483765 363.184814,407.729767 
	C363.640808,402.988373 363.786407,398.481415 362.314697,393.943268 
	C359.779205,386.124817 358.757141,378.305511 359.496674,369.907715 
	C360.799438,355.114258 358.850220,340.322632 357.303314,325.582611 
	C356.643921,319.299347 355.469818,313.065704 355.645905,306.702820 
	C355.688324,305.169373 356.132568,303.315399 354.290894,302.561462 
	C352.689697,302.710785 352.384308,303.641754 352.359497,304.697205 
	C351.924591,323.181091 347.824860,341.399017 348.183960,359.923126 
	C348.438446,373.050446 349.496429,386.162170 344.496490,398.818695 
	C343.414276,401.558105 344.254211,404.758118 344.586121,407.746185 
	C345.673889,417.538269 346.142090,427.345673 344.301758,437.093994 
	C342.318756,447.597961 341.527527,458.195984 341.239838,468.858948 
	C341.117340,473.399536 341.563080,477.845398 342.832947,482.189911 
	C344.989563,489.568024 344.001465,496.706818 341.053497,503.598389 
	C339.894836,506.307037 340.309937,509.165222 339.466278,511.889496 
	C337.566376,518.024658 334.571716,520.009827 328.328735,518.834229 
	C315.992737,516.511230 314.748810,514.110779 321.458588,503.372223 
	C328.394531,492.271637 330.254150,480.864288 326.719391,468.108185 
	C322.409576,452.555206 319.638794,436.629517 317.164642,420.671204 
	C315.617432,410.691284 318.678680,401.203735 319.943268,391.501801 
	C321.391479,380.390869 321.224548,369.391968 317.154602,358.548248 
	C312.451477,346.017334 310.250580,332.851929 309.705688,319.465210 
	C308.764038,296.329803 311.925476,273.793396 317.892731,251.368973 
	C320.245422,242.527695 320.987366,232.637604 318.323425,223.227356 
	C317.035706,218.678543 317.570801,213.674393 314.684479,208.385544 
	C312.150543,213.283173 310.993927,217.742371 310.363556,222.188675 
	C307.944885,239.248032 302.488647,255.144562 293.416443,269.833313 
	C288.226074,278.237000 284.174835,286.792816 284.998535,297.411652 
	C285.524017,304.185577 281.913727,310.868256 281.700989,317.974091 
	C281.601471,321.297577 277.738647,323.475861 275.185760,325.543518 
	C273.525879,326.887878 270.666290,326.956238 269.267181,323.516174 
	C267.857147,320.049194 266.469696,316.797882 267.339478,312.966461 
	C267.742828,311.189667 267.932983,309.341583 266.964447,307.572113 
	C264.930389,306.469666 264.048279,309.808350 261.717926,308.653687 
	C260.293732,307.632660 260.657135,305.951752 261.384430,304.432098 
	C262.745941,301.587402 263.682770,298.129852 265.898193,296.177979 
	C273.422119,289.549164 274.833435,280.581512 276.699615,271.589813 
	C279.198456,259.549713 279.848358,246.920761 284.813568,235.645645 
	C290.478088,222.782532 292.897827,209.356049 295.280182,195.753876 
	C296.479675,188.905258 294.579346,182.233780 295.304657,175.350876 
	C296.898987,160.220810 305.368439,151.206299 318.815094,145.935837 
	C323.005951,144.293213 327.183685,142.690811 331.148224,140.520004 
	C339.501038,135.946335 341.828339,130.848770 339.218536,121.644058 
	C338.279022,118.330399 337.344666,115.033745 335.117737,112.112030 
	C332.858704,109.148148 331.838654,105.644630 334.009155,101.845291 
	C335.386719,99.433945 334.541046,96.604759 334.590149,93.968979 
	C334.806091,82.380974 341.669891,75.774551 353.732483,75.661613 
	C365.720398,75.549393 373.720001,82.557434 374.139893,93.608582 
	C374.276794,97.211868 373.735931,100.759171 375.080078,104.387833 
	C376.091553,107.118271 374.414154,109.956276 372.909027,112.361397 
	C369.220825,118.255028 367.974640,124.507622 369.044006,131.407089 
	C369.605408,135.029434 370.992218,137.630386 374.390411,139.180923 
	C379.384827,141.459793 384.209747,144.064713 389.372498,146.027618 
	C407.165863,152.792755 414.327850,162.893158 413.024200,181.917435 
	C412.324280,192.131439 414.841156,201.697205 415.764679,211.570847 
	C416.751068,222.116531 422.947693,230.901321 425.137054,240.967239 
	C428.034607,254.289246 430.575348,267.689209 433.226959,281.064117 
	C434.188812,285.915680 436.022217,290.254761 439.665741,293.763885 
	C442.596313,296.586395 444.378815,300.200806 445.970581,303.883423 
	C446.599762,305.339050 447.974976,307.112396 446.183197,308.400787 
	C444.313141,309.745514 443.258209,307.772339 442.143768,306.626831 
	C441.804138,306.277771 441.569031,305.827087 440.845215,304.793335 
	C440.110382,307.792938 440.424316,309.972229 440.846313,312.196838 
	C441.626526,316.309753 440.672455,320.036865 438.567902,323.675537 
	C437.307800,325.854248 435.712646,326.731323 433.740662,325.582092 
	C430.112701,323.467834 426.093811,321.018982 425.871948,316.425751 
	C425.635406,311.528107 424.674652,306.904877 423.427032,302.237518 
	C422.876862,300.179443 422.427582,297.890564 422.754120,295.837158 
	C424.167145,286.952972 420.749573,279.468201 416.306824,272.283264 
	C407.087646,257.373749 400.450592,241.587372 398.473846,223.962524 
	C397.907715,218.914841 396.024353,214.014908 394.672729,208.766556 
	C388.620636,214.560699 387.632172,243.168564 392.600586,260.560486 
z"/>
</svg>