<svg version="1.1" id="Layer_1" xmlns="http://www.w3.org/2000/svg" xmlns:xlink="http://www.w3.org/1999/xlink" x="0px" y="0px"
	 width="100%" viewBox="270 50 210 475" enable-background="new 270 50 210 475" xml:space="preserve">
<path fill="#000000" opacity="1.000000" stroke="none" 
	d="
M442.482361,247.565826 
	C443.819763,252.979416 445.191772,257.960907 446.299011,263.000549 
	C447.727142,269.500824 450.166443,275.356201 455.408875,279.787842 
	C458.291687,282.224854 459.633728,285.729462 461.199951,289.035797 
	C461.890930,290.494476 463.071350,292.268188 461.098297,293.445801 
	C459.431793,294.440491 458.454193,292.714355 457.423279,291.693115 
	C456.989990,291.263855 456.595673,290.795227 455.922729,290.059143 
	C455.608765,296.414764 457.861847,302.454254 454.258301,308.026184 
	C451.744476,311.913116 449.171570,311.904358 446.108429,308.560638 
	C438.444366,300.194641 439.005585,289.445587 437.996826,279.464203 
	C437.344025,273.005371 436.444153,267.003418 433.314636,261.383057 
	C430.316681,255.998917 427.283356,250.632843 424.167694,245.316177 
	C418.192139,235.119232 414.682770,224.073486 412.668488,212.496338 
	C411.507538,205.823837 409.826874,199.306442 407.302917,192.804642 
	C404.916473,194.262543 404.700195,196.269409 404.271790,198.183456 
	C400.929047,213.118317 402.026642,227.569077 406.505554,242.357269 
	C417.152710,277.511383 417.696350,312.757111 404.956116,347.778931 
	C401.591522,357.027893 401.747040,367.230347 404.025085,376.408813 
	C408.276031,393.536560 406.569824,410.083618 402.921936,426.793945 
	C400.757294,436.709839 398.772766,446.676544 396.214935,456.492126 
	C393.063110,468.586884 396.580658,479.098755 402.842255,489.175385 
	C403.894714,490.869080 404.934723,492.595276 405.736023,494.414124 
	C406.765228,496.750519 406.508545,499.330994 404.627625,500.905457 
	C400.373993,504.466003 394.965759,504.151978 389.968903,503.719177 
	C385.884094,503.365326 384.403625,499.397461 384.175262,495.903137 
	C383.897614,491.654999 382.331116,487.849274 381.444824,483.825226 
	C380.488007,479.480591 379.191742,475.082092 380.442841,470.532562 
	C384.621460,455.337250 382.768250,440.083405 380.293854,424.970642 
	C378.497437,413.998566 378.236115,403.141205 379.510803,392.167542 
	C379.954010,388.351837 380.263367,384.531677 379.017792,380.777832 
	C375.892120,371.357941 374.942535,361.863770 375.592957,351.816040 
	C376.702576,334.673370 374.294464,317.591888 372.337921,300.551910 
	C371.996918,297.581879 371.980103,294.575989 371.733276,291.593262 
	C371.607819,290.077271 372.330688,288.118988 370.086060,287.546143 
	C368.664337,287.740112 368.432617,288.708710 368.410767,289.747742 
	C368.011566,308.735718 363.824921,327.497406 364.422760,346.488312 
	C364.828339,359.371613 365.348358,372.031525 360.659363,384.352448 
	C359.436371,387.565948 360.885101,390.986145 361.359924,394.229370 
	C363.328369,407.674713 360.457825,420.725677 358.885223,433.933655 
	C357.434418,446.119141 355.746521,458.437744 359.913422,470.560791 
	C360.840057,473.256714 360.094086,476.161316 359.884979,478.989624 
	C359.428619,485.163055 356.414825,490.675964 355.819275,496.902313 
	C355.263000,502.718689 351.113403,504.819275 345.229706,503.763672 
	C344.575012,503.646210 343.935699,503.432526 343.278412,503.341675 
	C332.914307,501.908813 331.449432,498.657623 337.162476,489.602844 
	C341.651276,482.488342 345.184540,475.038910 345.514801,466.437500 
	C345.749329,460.329193 343.476837,454.669983 342.164764,448.858673 
	C338.937622,434.565277 336.074951,420.207794 333.970734,405.709625 
	C332.407471,394.938660 335.521515,384.593658 336.933929,374.062164 
	C338.212799,364.526306 337.944275,354.819214 334.782837,345.482025 
	C328.257355,326.209076 324.648468,306.367249 325.921356,286.075317 
	C326.993317,268.986298 330.202728,252.115540 335.443268,235.699768 
	C339.573883,222.760635 338.081726,209.713242 335.548584,196.713074 
	C335.360809,195.749374 334.917938,194.815018 334.465179,193.932983 
	C334.275116,193.562805 333.750153,193.364532 333.068634,192.859070 
	C330.209442,198.732590 328.452423,204.823090 327.581757,210.982346 
	C325.417816,226.290405 319.532928,240.099533 311.903809,253.332703 
	C309.493561,257.513367 307.210236,261.773163 305.026764,266.076874 
	C302.882385,270.303558 301.656708,274.651703 302.792267,279.561737 
	C303.513123,282.678558 302.320007,285.830963 301.360779,288.844482 
	C300.193817,292.510712 299.170135,296.171021 299.281372,300.079041 
	C299.431641,305.357361 294.870636,307.462128 291.796021,310.355377 
	C290.224701,311.834045 287.950562,311.346375 286.492737,308.776764 
	C284.511383,305.284454 283.664398,301.738831 284.011322,297.783264 
	C284.164581,296.035553 285.101776,294.199799 283.776306,292.457611 
	C282.068451,291.858307 280.978302,294.476349 278.615448,292.993500 
	C278.000092,289.272491 279.953613,285.372528 282.340912,283.152802 
	C294.225586,272.102264 295.130951,256.893341 298.523865,242.660873 
	C301.229095,231.313126 304.304932,220.209976 308.847351,209.365433 
	C313.756256,197.645889 314.926300,184.882309 314.843170,172.176895 
	C314.799438,165.493942 314.898315,158.910965 316.307709,152.326767 
	C318.845886,140.469345 326.772308,134.147980 337.773621,131.058151 
	C341.167999,130.104797 344.438751,128.948883 347.604736,127.493645 
	C357.199890,123.083267 360.013214,115.121864 355.550995,105.403191 
	C354.104706,102.253120 353.001251,98.992874 351.078613,96.004608 
	C349.406006,93.404922 348.400482,90.232468 350.101990,87.001106 
	C351.013428,85.270203 350.457428,83.413467 350.442047,81.596886 
	C350.379852,74.252556 351.938080,67.514648 358.931610,63.641090 
	C366.873657,59.242165 374.888123,59.565781 382.645142,64.344955 
	C384.674835,65.595467 386.522003,67.317238 387.176208,69.539574 
	C390.087402,79.428566 394.155884,89.259384 387.126373,99.347626 
	C385.027588,102.359642 383.848999,106.354553 383.320221,110.052345 
	C381.942780,119.684631 384.253815,123.457283 393.171570,127.790489 
	C395.263794,128.807083 397.372070,129.976776 399.607269,130.483932 
	C420.370819,135.194962 425.170319,149.001770 424.868439,165.369736 
	C424.521332,184.185883 427.164124,202.013412 434.969482,219.215515 
	C438.963196,228.017227 440.348083,237.726471 442.482361,247.565826 
z"/>
</svg>